<svg width="909" height="668" viewBox="0 0 909 668" fill="none" xmlns="http://www.w3.org/2000/svg">
<rect width="909" height="668" rx="41" transform="matrix(-1 0 0 1 909 0)" fill="white"/>
<path d="M500.091 185.961L716.399 567.114H158.712L363.902 185.961H500.091Z" fill="#6DC8C2"/>
<path d="M318.632 353.55C315.656 347.518 314.091 340.889 314.054 334.164C314.017 327.439 315.51 320.793 318.42 314.729C321.329 308.666 325.58 303.343 330.849 299.164C336.119 294.985 342.27 292.059 348.837 290.607C351.665 289.988 354.247 288.544 356.254 286.457V286.423C360.098 282.402 360.757 278.796 366.211 267.867C366.795 266.685 367.284 265.734 367.57 265.191L413.002 282.81L400.688 320.459C403.221 328.408 403.46 336.911 401.38 344.99C399.299 353.07 394.982 360.399 388.925 366.137C382.868 371.874 375.315 375.787 367.135 377.427C358.954 379.067 350.477 378.367 342.677 375.407C342.304 379.135 340.902 382.687 338.629 385.666C336.356 388.644 333.299 390.933 329.801 392.276C326.303 393.619 322.501 393.965 318.818 393.273C315.135 392.582 311.717 390.881 308.944 388.361C306.172 385.84 304.154 382.599 303.115 378.999C302.077 375.398 302.059 371.58 303.064 367.971C304.068 364.361 306.056 361.101 308.805 358.554C311.554 356.008 314.956 354.276 318.632 353.55Z" fill="black"/>
<path d="M452.308 376.473C440.064 376.473 430.139 366.548 430.139 354.304C430.139 342.06 440.064 332.134 452.308 332.134C464.552 332.134 474.478 342.06 474.478 354.304C474.478 366.548 464.552 376.473 452.308 376.473Z" fill="black"/>
<path d="M381.004 295.749C380.984 291.849 382.5 288.099 385.224 285.309C387.948 282.519 391.661 280.913 395.56 280.84L396.477 270.856C396.746 267.689 397.638 264.607 399.1 261.786C400.563 258.965 402.568 256.46 405 254.415C407.432 252.37 410.244 250.825 413.275 249.869C416.306 248.913 419.495 248.564 422.661 248.842L459.44 252.272C464.255 252.75 468.684 255.117 471.756 258.856C474.829 262.594 476.293 267.398 475.829 272.214L471.754 317.137C471.433 320.909 470.37 324.581 468.627 327.942C466.884 331.303 464.496 334.287 461.598 336.723C458.7 339.159 455.35 340.999 451.739 342.139C448.129 343.278 444.329 343.693 440.558 343.362L438.853 343.199L436.55 368.098L387.966 363.575L390.683 334.084H390.724L392.884 310.372C389.521 309.68 386.5 307.845 384.335 305.18C382.17 302.515 380.993 299.183 381.004 295.749Z" fill="white"/>
<path d="M395.92 302.853C397.06 302.853 398.175 302.515 399.124 301.881C400.072 301.248 400.811 300.347 401.247 299.293C401.684 298.24 401.798 297.08 401.576 295.962C401.353 294.843 400.804 293.816 399.997 293.009C399.191 292.203 398.164 291.654 397.045 291.431C395.926 291.209 394.767 291.323 393.713 291.759C392.66 292.196 391.759 292.935 391.125 293.883C390.492 294.831 390.153 295.946 390.153 297.087C390.155 298.616 390.763 300.081 391.844 301.162C392.925 302.243 394.391 302.851 395.92 302.853ZM395.92 294.023C396.523 294.023 397.113 294.202 397.614 294.537C398.116 294.873 398.507 295.349 398.737 295.906C398.968 296.463 399.029 297.077 398.911 297.668C398.793 298.26 398.503 298.803 398.076 299.23C397.65 299.656 397.106 299.947 396.515 300.064C395.923 300.182 395.31 300.121 394.753 299.891C394.196 299.66 393.719 299.269 393.384 298.767C393.049 298.266 392.87 297.676 392.87 297.073C392.876 296.267 393.199 295.496 393.77 294.927C394.341 294.359 395.114 294.039 395.92 294.037V294.023Z" fill="black"/>
<path d="M438.955 343.239L410.027 339.646C409.841 339.623 409.653 339.666 409.496 339.769C409.339 339.872 409.225 340.028 409.172 340.208C409.12 340.388 409.133 340.581 409.21 340.752C409.287 340.923 409.423 341.061 409.593 341.141L437.909 354.67L438.955 343.239Z" fill="black"/>
<path d="M400.172 299.593C400.491 299.599 400.801 299.493 401.05 299.293C401.298 299.093 401.468 298.812 401.53 298.499C401.842 296.959 401.744 295.363 401.246 293.872C400.748 292.381 399.867 291.046 398.691 290.003C397.556 289.044 396.207 288.372 394.758 288.043C393.309 287.713 391.803 287.735 390.364 288.108C390.018 288.204 389.723 288.434 389.546 288.748C389.369 289.061 389.324 289.432 389.42 289.778C389.517 290.125 389.747 290.419 390.06 290.596C390.373 290.773 390.744 290.819 391.091 290.723C392.09 290.471 393.135 290.458 394.14 290.685C395.145 290.911 396.083 291.371 396.878 292.027C397.696 292.753 398.308 293.683 398.654 294.721C399 295.759 399.067 296.87 398.847 297.943C398.812 298.118 398.811 298.298 398.845 298.474C398.88 298.65 398.949 298.817 399.048 298.966C399.147 299.114 399.274 299.242 399.423 299.342C399.572 299.441 399.738 299.511 399.914 299.545C399.999 299.568 400.085 299.584 400.172 299.593Z" fill="black"/>
<path d="M467.163 300.259C465.576 300.259 464.29 298.972 464.29 297.386C464.29 295.799 465.576 294.513 467.163 294.513C468.749 294.513 470.036 295.799 470.036 297.386C470.036 298.972 468.749 300.259 467.163 300.259Z" fill="black"/>
<path d="M436.51 296.707C434.923 296.707 433.637 295.42 433.637 293.833C433.637 292.247 434.923 290.96 436.51 290.96C438.096 290.96 439.383 292.247 439.383 293.833C439.383 295.42 438.096 296.707 436.51 296.707Z" fill="black"/>
<path d="M454.713 308.844C454.82 308.844 454.928 308.831 455.032 308.803C457.199 308.28 459.44 307.493 459.596 305.679C459.612 304.991 459.356 304.325 458.883 303.825C458.747 303.648 458.591 303.444 458.421 303.18C457.787 302.163 457.466 300.982 457.497 299.784L457.559 287.259C457.559 286.899 457.415 286.553 457.161 286.298C456.906 286.044 456.56 285.9 456.2 285.9C455.84 285.9 455.494 286.044 455.24 286.298C454.985 286.553 454.842 286.899 454.842 287.259L454.781 299.784C454.762 301.486 455.234 303.157 456.139 304.599C456.356 304.932 456.533 305.176 456.689 305.38C455.968 305.731 455.206 305.989 454.421 306.148C454.093 306.222 453.805 306.415 453.612 306.689C453.418 306.964 453.333 307.3 453.373 307.633C453.413 307.966 453.574 308.273 453.827 308.494C454.079 308.715 454.404 308.835 454.74 308.831L454.713 308.844Z" fill="black"/>
<path d="M450.04 320.805C451.875 320.779 453.684 320.353 455.337 319.555C455.658 319.39 455.9 319.105 456.01 318.762C456.12 318.418 456.09 318.045 455.925 317.725C455.76 317.404 455.475 317.162 455.131 317.052C454.788 316.942 454.415 316.972 454.094 317.137C454.054 317.137 450.923 318.726 448.097 317.816C447.326 317.536 446.62 317.102 446.022 316.54C445.424 315.979 444.947 315.301 444.619 314.549C444.546 314.38 444.439 314.227 444.304 314.1C444.17 313.973 444.011 313.875 443.837 313.812C443.663 313.749 443.479 313.722 443.294 313.732C443.109 313.743 442.929 313.791 442.764 313.874C442.599 313.957 442.452 314.073 442.333 314.214C442.214 314.356 442.125 314.52 442.072 314.697C442.019 314.874 442.002 315.06 442.023 315.244C442.044 315.427 442.103 315.605 442.195 315.765C442.677 316.845 443.377 317.814 444.249 318.612C445.122 319.41 446.15 320.02 447.268 320.404C448.165 320.683 449.1 320.818 450.04 320.805Z" fill="black"/>
<path d="M389.33 349.33L438.487 353.864L436.4 376.488L387.244 371.954L389.33 349.33Z" fill="#C7B8F8"/>
<path d="M458.74 253.998C454.421 253.658 450.298 257.21 447.873 260.369C443.798 265.694 442.079 272.187 438.941 278.028C432.713 289.575 417.546 291.021 406.495 286.213L364.86 270.679C365.892 267.358 371.231 248.578 390.323 239.49C399.158 235.358 409.011 233.912 418.66 235.333L453.701 237.167C457.779 237.35 461.748 238.547 465.247 240.651C471.584 244.557 478.512 252.877 476.06 270.448C475.502 266.128 473.472 262.133 470.312 259.134C467.153 256.135 463.056 254.317 458.713 253.984L458.74 253.998Z" fill="black"/>
<path d="M473.085 370.469C473.085 370.469 488.843 372.676 499.194 404.307C501.755 412.132 504.472 419.875 507.61 427.509L528.849 475.692L513.383 542.181L478.709 519.631L490.29 489.684C496.797 474.062 498.712 456.457 493.801 440.278L473.085 370.469Z" fill="white"/>
<path d="M337.236 498.989L481.548 515.895C488.021 499.845 489.264 498.371 495.73 482.335C501.02 469.229 501.708 454.715 497.68 441.168L477.487 373.484C477.043 371.981 476.138 370.656 474.9 369.695C473.661 368.735 472.152 368.188 470.586 368.132L343.274 363.289C340.17 419.019 340.306 443.26 337.236 498.989Z" fill="#C7B8F8"/>
<path d="M493.176 319.725C488.666 322.306 486.024 327.02 483.667 331.462C480.938 336.565 478.549 341.843 476.515 347.26C472.444 358.068 469.829 369.37 468.738 380.868C467.667 392.119 468.206 403.465 470.341 414.563C472.369 424.983 475.827 435.072 480.618 444.544C485.408 454.047 491.573 462.792 498.916 470.497C499.821 471.461 500.763 472.407 501.741 473.336C503.629 475.163 500.749 478.043 498.861 476.215C490.945 468.52 484.22 459.689 478.906 450.011C473.561 440.338 469.592 429.966 467.115 419.196C464.543 407.868 463.607 396.23 464.337 384.637C465.084 372.65 467.454 360.819 471.38 349.468C473.364 343.71 475.726 338.09 478.451 332.644C480.903 327.74 483.525 322.489 487.647 318.761C488.7 317.798 489.855 316.953 491.091 316.241C493.373 314.937 495.424 318.455 493.129 319.759L493.176 319.725Z" fill="white"/>
<path d="M390.846 555.717C391.354 540.29 388.361 524.947 382.091 510.842C375.866 496.664 366.571 484.046 354.875 473.899C348.762 468.649 341.753 463.406 333.697 461.809C330.126 461.084 326.423 461.38 323.013 462.665C321.616 463.239 320.28 463.954 319.026 464.798C317.764 465.663 316.592 466.653 315.528 467.753C310.835 472.507 307.69 478.892 305.449 485.14C302.46 493.508 300.491 502.331 298.901 511.059C295.529 529.583 294.673 548.477 296.354 567.23C296.562 569.58 296.812 571.926 297.101 574.267C297.237 575.36 296.069 576.304 295.064 576.304C294.527 576.292 294.016 576.074 293.636 575.694C293.257 575.314 293.038 574.803 293.026 574.267C290.657 554.787 290.987 535.074 294.004 515.685C295.428 506.283 297.518 496.996 300.26 487.891C302.413 480.814 305.388 473.838 309.952 467.97C314.414 462.217 320.602 458.04 327.985 457.401C336.944 456.634 345.407 461.429 352.314 466.625C365.221 476.399 375.736 488.981 383.062 503.418C390.465 517.825 394.532 533.712 394.962 549.903C395.01 551.839 394.962 553.768 394.921 555.704C394.833 558.319 390.758 558.332 390.846 555.704V555.717Z" fill="white"/>
<path d="M465.492 521.179C467.387 510.149 467.346 498.873 465.369 487.857C463.569 477.825 460.33 467.868 454.991 459.14C452.592 455.158 449.653 451.528 446.256 448.354C444.613 446.844 442.84 445.48 440.958 444.279C439.202 443.142 437.342 442.176 435.402 441.392C431.554 439.887 427.444 439.162 423.312 439.26C419.4 439.306 415.542 440.179 411.99 441.82C408.302 443.534 405.191 446.283 403.038 449.733C400.518 453.842 399.52 458.875 401 463.399C401.654 465.374 402.766 467.167 404.247 468.629C405.687 470.042 407.691 471.346 409.81 471.529C410.693 471.593 411.579 471.448 412.397 471.107C413.214 470.766 413.94 470.238 414.517 469.566C415.876 468.091 416.872 466.319 417.424 464.39C420.467 454.372 416.14 443.423 410.985 434.906C405.932 426.7 399.439 419.475 391.817 413.579C383.864 407.421 374.998 402.544 365.539 399.125C355.078 395.356 344.183 392.921 333.113 391.878C330.396 391.606 327.679 391.402 324.963 391.266C324.427 391.253 323.916 391.034 323.537 390.654C323.158 390.275 322.939 389.765 322.925 389.229C322.925 388.688 323.14 388.17 323.522 387.788C323.904 387.406 324.422 387.191 324.963 387.191C336.854 387.707 348.64 389.656 360.064 392.998C370.764 396.143 380.9 400.956 390.099 407.262C398.73 413.207 406.221 420.657 412.214 429.255C418.429 438.315 423.577 449.59 422.266 460.838C421.682 465.871 419.855 471.142 415.474 474.083C410.788 477.207 404.892 475.047 401.245 471.366C399.422 469.472 398.04 467.198 397.198 464.708C396.356 462.217 396.075 459.572 396.375 456.96C397.017 451.602 399.503 446.634 403.405 442.907C409.966 436.597 419.584 434.356 428.447 435.51C438.296 436.794 446.834 442.228 453.198 449.733C459.99 457.768 464.405 467.596 467.237 477.676C470.496 489.286 471.646 501.386 470.633 513.402C470.382 516.384 469.954 519.366 469.479 522.32C469.334 522.841 468.989 523.283 468.519 523.549C468.049 523.815 467.493 523.884 466.972 523.74C466.456 523.588 466.02 523.242 465.754 522.774C465.488 522.307 465.413 521.755 465.546 521.234L465.492 521.179Z" fill="white"/>
<path d="M262.108 492.713H262.034L272.365 468.669L294.099 418.034C297.228 410.753 300.357 403.467 303.486 396.177C307.752 386.254 311.229 375.515 320.222 368.75C331.768 360.077 349.224 358.291 361.124 367.249C371.251 374.87 374.029 388.713 373.846 400.762C373.601 414.421 369.091 427.706 363.155 439.864C357.042 452.389 352.016 465.43 346.399 478.192L337.229 499.017L474.763 515.1C479.326 515.63 483.779 516.86 487.967 518.748C493.74 521.36 499.613 524.168 505.586 527.17C509.086 528.927 512.504 530.697 515.842 532.481L507.209 567.121H311.025C272.453 567.121 246.969 527.564 262.108 492.713Z" fill="white"/>
<path d="M130.226 365.823H276.997C280.239 365.823 283.349 364.535 285.642 362.243C287.935 359.95 289.223 356.84 289.223 353.598V238.947C289.223 235.704 287.935 232.594 285.642 230.302C283.349 228.009 280.239 226.721 276.997 226.721H130.226C126.983 226.721 123.874 228.009 121.581 230.302C119.288 232.594 118 235.704 118 238.947V353.611C118.004 356.851 119.293 359.957 121.586 362.247C123.878 364.537 126.986 365.823 130.226 365.823ZM276.997 229.451C279.519 229.451 281.937 230.453 283.721 232.236C285.504 234.02 286.506 236.438 286.506 238.96V353.611C286.506 356.133 285.504 358.552 283.721 360.335C281.937 362.118 279.519 363.12 276.997 363.12H130.226C127.704 363.12 125.285 362.118 123.502 360.335C121.719 358.552 120.717 356.133 120.717 353.611V238.947C120.717 236.425 121.719 234.006 123.502 232.223C125.285 230.439 127.704 229.438 130.226 229.438L276.997 229.451Z" fill="black"/>
<path d="M210.509 253.583H262.944C266.335 253.583 269.084 256.332 269.084 259.724V339.714C269.084 343.105 266.335 345.854 262.944 345.854H210.509C207.118 345.854 204.369 343.105 204.369 339.714V259.724C204.369 256.332 207.118 253.583 210.509 253.583Z" fill="#A5CEF4"/>
<path d="M167.521 256.436H181.18C183.063 256.436 184.59 257.963 184.59 259.846V273.505C184.59 275.388 183.063 276.915 181.18 276.915H167.521C165.638 276.915 164.112 275.388 164.112 273.505V259.846C164.112 257.963 165.638 256.436 167.521 256.436Z" fill="#FFC1EB"/>
<path d="M137.548 256.436H151.207C153.09 256.436 154.616 257.963 154.616 259.846V273.505C154.616 275.388 153.09 276.915 151.207 276.915H137.548C135.665 276.915 134.138 275.388 134.138 273.505V259.846C134.138 257.963 135.665 256.436 137.548 256.436Z" fill="#FFC1EB"/>
<path d="M134.145 293.786H183.286C183.646 293.786 183.992 293.643 184.247 293.388C184.501 293.133 184.644 292.788 184.644 292.427C184.644 292.067 184.501 291.721 184.247 291.467C183.992 291.212 183.646 291.069 183.286 291.069H134.145C133.785 291.069 133.439 291.212 133.184 291.467C132.93 291.721 132.787 292.067 132.787 292.427C132.787 292.788 132.93 293.133 133.184 293.388C133.439 293.643 133.785 293.786 134.145 293.786Z" fill="black"/>
<path d="M134.145 307.608H183.286C183.646 307.608 183.992 307.465 184.247 307.21C184.501 306.955 184.644 306.61 184.644 306.25C184.644 305.889 184.501 305.544 184.247 305.289C183.992 305.034 183.646 304.891 183.286 304.891H134.145C133.785 304.891 133.439 305.034 133.184 305.289C132.93 305.544 132.787 305.889 132.787 306.25C132.787 306.61 132.93 306.955 133.184 307.21C133.439 307.465 133.785 307.608 134.145 307.608Z" fill="black"/>
<path d="M148.843 322.374H183.286C183.646 322.374 183.992 322.231 184.247 321.976C184.501 321.721 184.644 321.376 184.644 321.015C184.644 320.655 184.501 320.31 184.247 320.055C183.992 319.8 183.646 319.657 183.286 319.657H148.843C148.483 319.657 148.137 319.8 147.883 320.055C147.628 320.31 147.485 320.655 147.485 321.015C147.485 321.376 147.628 321.721 147.883 321.976C148.137 322.231 148.483 322.374 148.843 322.374Z" fill="black"/>
<path d="M310.217 486.118C310.217 482.838 321.845 480.175 336.197 480.175C350.549 480.175 362.177 482.838 362.177 486.118L364.968 515.433C358.461 514.374 349.346 514.306 341.304 519.305C338.438 521.14 335.273 522.462 331.952 523.21C326.362 524.385 317.946 524.664 307.819 520.371L310.217 486.118Z" fill="white"/>
<path d="M422.117 368.628C422.464 368.629 422.798 368.497 423.05 368.26C423.303 368.022 423.455 367.697 423.476 367.351L424.277 353.536C424.298 353.176 424.175 352.822 423.935 352.553C423.694 352.283 423.357 352.12 422.997 352.1C422.637 352.079 422.283 352.202 422.013 352.442C421.744 352.682 421.581 353.02 421.56 353.38L420.759 367.188C420.748 367.367 420.772 367.546 420.83 367.715C420.889 367.884 420.98 368.04 421.098 368.173C421.217 368.307 421.361 368.416 421.522 368.494C421.683 368.572 421.857 368.618 422.036 368.628H422.117Z" fill="black"/>
<path d="M408.343 367.623C408.689 367.624 409.023 367.492 409.276 367.254C409.528 367.017 409.68 366.692 409.701 366.346L410.503 352.531C410.513 352.353 410.488 352.174 410.429 352.005C410.37 351.836 410.279 351.681 410.16 351.548C410.041 351.414 409.897 351.305 409.736 351.228C409.575 351.15 409.401 351.105 409.222 351.094C409.044 351.084 408.865 351.109 408.697 351.168C408.528 351.227 408.372 351.318 408.239 351.437C408.105 351.556 407.997 351.7 407.919 351.861C407.841 352.022 407.796 352.196 407.786 352.375L406.984 366.217C406.973 366.396 406.998 366.574 407.056 366.743C407.114 366.913 407.205 367.068 407.324 367.202C407.442 367.336 407.586 367.445 407.747 367.523C407.908 367.601 408.083 367.647 408.261 367.657L408.343 367.623Z" fill="black"/>
<path d="M406.047 568.724H515.842V544.986H406.047C404.53 544.986 403.076 545.588 402.003 546.661C400.931 547.733 400.328 549.188 400.328 550.705V562.998C400.327 563.75 400.474 564.494 400.761 565.189C401.048 565.884 401.47 566.515 402.001 567.047C402.532 567.578 403.163 568 403.857 568.288C404.551 568.576 405.295 568.724 406.047 568.724Z" fill="black"/>
<path d="M503.446 568.724H632.129C634.528 568.747 636.87 567.994 638.806 566.578C640.742 565.162 642.169 563.159 642.875 560.866L674.383 454.039C676.421 447.118 671.062 440.224 663.638 440.224H542.277C539.772 440.195 537.332 441.014 535.353 442.548C533.373 444.083 531.972 446.241 531.375 448.674L503.446 568.724Z" fill="black"/>
<path d="M596.906 532.434C587.059 532.434 579.076 524.451 579.076 514.604C579.076 504.758 587.059 496.775 596.906 496.775C606.752 496.775 614.735 504.758 614.735 514.604C614.735 524.451 606.752 532.434 596.906 532.434Z" fill="#FFC1EB"/>
<path d="M600.824 501.93C601.129 501.93 601.424 501.827 601.663 501.638C601.902 501.45 602.071 501.187 602.142 500.891L604.275 492.156C604.317 491.983 604.325 491.803 604.298 491.626C604.271 491.45 604.209 491.28 604.116 491.128C603.929 490.82 603.627 490.598 603.276 490.513C602.926 490.427 602.556 490.484 602.248 490.672C601.94 490.859 601.718 491.161 601.633 491.511L599.5 500.246C599.457 500.419 599.45 500.6 599.477 500.776C599.504 500.953 599.566 501.122 599.658 501.275C599.751 501.427 599.873 501.56 600.017 501.666C600.161 501.771 600.325 501.847 600.498 501.89C600.605 501.916 600.715 501.93 600.824 501.93Z" fill="#6DC8C2"/>
<path d="M158.712 568.48H697.15C697.511 568.48 697.856 568.337 698.111 568.082C698.366 567.827 698.509 567.482 698.509 567.121C698.509 566.761 698.366 566.416 698.111 566.161C697.856 565.906 697.511 565.763 697.15 565.763H158.712C158.352 565.763 158.006 565.906 157.751 566.161C157.497 566.416 157.354 566.761 157.354 567.121C157.354 567.482 157.497 567.827 157.751 568.082C158.006 568.337 158.352 568.48 158.712 568.48Z" fill="black"/>
<path d="M432 203.627C436.575 203.634 441.05 202.283 444.858 199.746C448.665 197.209 451.635 193.599 453.391 189.374C455.146 185.149 455.609 180.497 454.721 176.009C453.832 171.52 451.632 167.396 448.399 164.159C445.166 160.921 441.045 158.715 436.558 157.82C432.071 156.925 427.419 157.381 423.191 159.13C418.963 160.879 415.349 163.844 412.806 167.648C410.264 171.452 408.906 175.924 408.906 180.5C408.915 186.625 411.35 192.497 415.678 196.831C420.006 201.166 425.875 203.609 432 203.627ZM432 160.09C436.03 160.09 439.969 161.285 443.32 163.524C446.671 165.763 449.283 168.945 450.825 172.668C452.367 176.392 452.771 180.489 451.984 184.441C451.198 188.394 449.258 192.025 446.408 194.874C443.558 197.724 439.927 199.665 435.975 200.451C432.022 201.237 427.925 200.834 424.202 199.291C420.479 197.749 417.296 195.137 415.057 191.787C412.818 188.436 411.623 184.496 411.623 180.466C411.638 175.066 413.789 169.892 417.607 166.074C421.425 162.255 426.6 160.104 432 160.09Z" fill="white"/>
<path d="M431.042 100H432.951C435.862 100 438.221 102.36 438.221 105.271V148.835C438.221 151.746 435.862 154.106 432.951 154.106H431.042C428.131 154.106 425.771 151.746 425.771 148.835V105.271C425.771 102.36 428.131 100 431.042 100Z" fill="black"/>
<path d="M363.875 185.981C363.384 185.981 362.902 185.854 362.475 185.612C362.048 185.371 361.691 185.023 361.438 184.603C361.185 184.182 361.046 183.704 361.032 183.214C361.019 182.723 361.132 182.238 361.362 181.804C368.21 168.773 378.52 157.883 391.158 150.334C403.796 142.784 418.271 138.867 432.991 139.014M363.875 185.981V185.481H363.875M363.875 185.981L363.875 185.481M363.875 185.981H500.091C500.582 185.982 501.065 185.856 501.492 185.615C501.92 185.374 502.278 185.026 502.532 184.606C502.786 184.185 502.926 183.706 502.94 183.215C502.954 182.724 502.84 182.238 502.611 181.804C495.923 169.073 485.928 158.38 473.676 150.85C461.425 143.32 447.37 139.231 432.991 139.014M363.875 185.481C363.471 185.481 363.073 185.376 362.722 185.177C362.37 184.978 362.075 184.691 361.867 184.345C361.658 183.998 361.543 183.604 361.532 183.2C361.521 182.796 361.614 182.395 361.804 182.038L361.804 182.037C368.61 169.087 378.855 158.266 391.414 150.763C403.973 143.261 418.357 139.368 432.985 139.514M363.875 185.481H500.091H500.091C500.496 185.482 500.894 185.378 501.247 185.179C501.6 184.98 501.895 184.694 502.104 184.347C502.313 184.001 502.429 183.606 502.44 183.201C502.452 182.797 502.358 182.396 502.169 182.038L502.168 182.037C495.522 169.385 485.589 158.759 473.414 151.276C461.24 143.793 447.274 139.73 432.985 139.514M432.985 139.514C432.985 139.514 432.984 139.514 432.984 139.514L432.991 139.014M432.985 139.514C432.985 139.514 432.986 139.514 432.986 139.514L432.991 139.014" stroke="black"/>
<path d="M473.839 172.947C482.778 172.947 490.065 166.909 490.174 166.834C490.45 166.602 490.622 166.27 490.652 165.91C490.683 165.551 490.57 165.195 490.337 164.919C490.105 164.643 489.772 164.471 489.413 164.441C489.054 164.41 488.697 164.524 488.422 164.756V164.756C487.824 165.259 473.696 176.9 461.634 164.838L460.812 164.016L459.868 164.695C459.188 165.184 443.281 176.568 431.538 164.831L430.743 164.029L429.806 164.668C427.132 166.383 424.205 167.667 421.132 168.471C414.782 170.074 409.524 168.852 405.51 164.831L404.668 163.989L403.724 164.708C403.092 165.191 388.055 176.432 376.447 164.831C376.189 164.596 375.851 164.47 375.502 164.478C375.153 164.486 374.821 164.627 374.574 164.874C374.327 165.12 374.184 165.451 374.175 165.8C374.166 166.149 374.291 166.487 374.525 166.746C386.031 178.252 400.586 170.04 404.41 167.527C409.015 171.602 415.026 172.839 421.879 171.086C424.874 170.293 427.743 169.086 430.403 167.5C441.95 178.007 456.655 169.952 460.513 167.5C464.935 171.569 469.574 172.947 473.839 172.947Z" fill="#A5CEF4"/>
<path d="M512.351 533.045C512.643 533.037 512.925 532.936 513.155 532.755C513.385 532.574 513.55 532.324 513.626 532.042C513.703 531.759 513.686 531.46 513.578 531.188C513.471 530.916 513.278 530.686 513.03 530.532C508.615 527.815 504.037 525.289 499.446 522.945C493.333 519.855 487.036 517.029 480.665 514.55C480.329 514.42 479.955 514.428 479.625 514.573C479.295 514.718 479.037 514.989 478.906 515.325C478.776 515.661 478.784 516.035 478.929 516.364C479.074 516.694 479.344 516.953 479.68 517.084C485.97 519.529 492.205 522.314 498.216 525.37C502.76 527.679 507.27 530.199 511.637 532.841C511.851 532.976 512.098 533.047 512.351 533.045Z" fill="black"/>
<path d="M687.662 493.95L679.79 464.146H724.448L717.357 494.276C725.411 497.79 732.002 503.98 736.014 511.798C740.025 519.616 741.21 528.581 739.368 537.172C737.526 545.764 732.77 553.455 725.906 558.941C719.042 564.427 710.493 567.372 701.706 567.275C692.92 567.179 684.437 564.047 677.695 558.412C670.953 552.776 666.367 544.983 664.714 536.353C663.061 527.723 664.443 518.786 668.625 511.058C672.807 503.33 679.533 497.286 687.662 493.95Z" fill="white"/>
<path d="M702.122 568.622C711.082 568.615 719.773 565.557 726.764 559.953C733.755 554.349 738.63 546.532 740.586 537.788C742.543 529.045 741.465 519.895 737.529 511.846C733.594 503.797 727.035 497.327 718.933 493.501L726.166 462.787H678.031L686.045 493.162C677.802 496.848 671.073 503.251 666.982 511.301C662.89 519.352 661.685 528.562 663.567 537.394C665.448 546.226 670.303 554.145 677.32 559.828C684.337 565.512 693.092 568.616 702.122 568.622ZM722.736 465.504L715.774 495.07L716.814 495.519C724.582 498.907 730.941 504.877 734.811 512.417C738.681 519.957 739.826 528.604 738.05 536.891C736.274 545.179 731.687 552.597 725.067 557.89C718.447 563.182 710.201 566.023 701.726 565.93C693.251 565.838 685.068 562.818 678.565 557.382C672.062 551.947 667.639 544.43 666.044 536.106C664.45 527.782 665.782 519.162 669.816 511.708C673.85 504.254 680.337 498.424 688.178 495.206L689.278 494.751L681.556 465.504H722.736Z" fill="black"/>
<path d="M702.136 467.848C688.789 467.848 677.97 465.555 677.97 462.726C677.97 459.898 688.789 457.605 702.136 457.605C715.483 457.605 726.302 459.898 726.302 462.726C726.302 465.555 715.483 467.848 702.136 467.848Z" fill="black"/>
<path d="M708.711 466.849C708.988 466.848 709.258 466.763 709.485 466.604C709.712 466.444 709.885 466.22 709.981 465.96C718.226 443.478 735.268 425.207 735.438 425.051C735.56 424.921 735.656 424.768 735.72 424.601C735.783 424.435 735.814 424.257 735.809 424.078C735.803 423.9 735.763 423.724 735.69 423.561C735.617 423.398 735.513 423.251 735.383 423.128C735.253 423.006 735.101 422.91 734.934 422.846C734.767 422.783 734.589 422.752 734.411 422.758C734.232 422.763 734.057 422.803 733.894 422.876C733.731 422.949 733.584 423.053 733.461 423.183C733.285 423.373 715.87 442.011 707.434 465.022C707.317 465.357 707.335 465.723 707.485 466.044C707.635 466.365 707.904 466.615 708.235 466.741C708.386 466.804 708.547 466.841 708.711 466.849Z" fill="black"/>
<path d="M697.83 467.033C698.19 467.033 698.535 466.89 698.79 466.635C699.045 466.38 699.188 466.035 699.188 465.674V446.222C699.188 445.861 699.045 445.516 698.79 445.261C698.535 445.006 698.19 444.863 697.83 444.863C697.469 444.863 697.124 445.006 696.869 445.261C696.614 445.516 696.471 445.861 696.471 446.222V465.674C696.471 466.035 696.614 466.38 696.869 466.635C697.124 466.89 697.469 467.033 697.83 467.033Z" fill="black"/>
<path d="M727.572 411.453H733.366C733.475 411.154 733.597 410.862 733.726 410.576L729.508 406.841C729.062 406.456 728.696 405.987 728.432 405.46C728.168 404.933 728.012 404.359 727.972 403.771C727.932 403.183 728.01 402.593 728.2 402.035C728.39 401.477 728.688 400.963 729.079 400.521C729.469 400.08 729.944 399.721 730.474 399.464C731.005 399.208 731.581 399.059 732.169 399.027C732.758 398.995 733.347 399.08 733.902 399.278C734.457 399.475 734.968 399.781 735.404 400.178L739.846 404.11C739.914 404.171 739.968 404.246 740.036 404.314C740.314 404.185 740.6 404.07 740.892 403.961V398.575C740.937 397.424 741.425 396.335 742.255 395.537C743.086 394.739 744.192 394.293 745.344 394.293C746.496 394.293 747.602 394.739 748.432 395.537C749.263 396.335 749.751 397.424 749.796 398.575V403.961C750.208 404.112 750.611 404.284 751.005 404.477C751.13 404.323 751.266 404.177 751.413 404.042L755.889 400.178C756.79 399.46 757.934 399.119 759.08 399.226C760.227 399.333 761.288 399.881 762.04 400.753C762.793 401.626 763.178 402.755 763.115 403.906C763.052 405.056 762.546 406.137 761.703 406.922L757.206 410.801C757.171 410.832 757.132 410.859 757.091 410.882C757.172 411.072 757.24 411.269 757.315 411.466H762.898C764.072 411.472 765.197 411.941 766.026 412.772C766.856 413.602 767.323 414.727 767.327 415.902C767.327 417.082 766.858 418.214 766.024 419.05C765.19 419.885 764.058 420.355 762.878 420.357H757.349L757.213 420.724H757.254L761.703 424.657C762.543 425.451 763.042 426.541 763.093 427.696C763.145 428.851 762.745 429.981 761.979 430.847C761.212 431.713 760.139 432.247 758.987 432.337C757.834 432.426 756.691 432.064 755.8 431.326L751.358 427.394L751.263 427.292C750.778 427.554 750.274 427.781 749.755 427.971V433.31C749.71 434.46 749.222 435.549 748.392 436.347C747.562 437.146 746.455 437.591 745.303 437.591C744.152 437.591 743.045 437.146 742.215 436.347C741.385 435.549 740.896 434.46 740.851 433.31V428.025C740.545 427.91 740.24 427.788 739.941 427.645L735.58 431.401C734.682 432.169 733.516 432.55 732.338 432.458C731.159 432.366 730.066 431.81 729.298 430.912C728.529 430.014 728.149 428.848 728.241 427.669C728.333 426.491 728.889 425.398 729.787 424.629L733.658 421.288C733.522 420.982 733.4 420.67 733.285 420.357H727.572C726.391 420.357 725.257 419.888 724.422 419.052C723.586 418.217 723.117 417.083 723.117 415.902C723.119 414.721 723.589 413.589 724.424 412.755C725.26 411.921 726.392 411.453 727.572 411.453Z" fill="#C7B8F8"/>
<path d="M727.572 411.453H733.366C733.475 411.154 733.597 410.862 733.726 410.576L729.508 406.841C729.062 406.456 728.696 405.987 728.432 405.46C728.168 404.933 728.012 404.359 727.972 403.771C727.932 403.183 728.01 402.593 728.2 402.035C728.39 401.477 728.688 400.963 729.079 400.521C729.469 400.08 729.944 399.721 730.474 399.464C731.005 399.208 731.581 399.059 732.169 399.027C732.758 398.995 733.347 399.08 733.902 399.278C734.457 399.475 734.968 399.781 735.404 400.178L739.846 404.11C739.914 404.171 739.968 404.246 740.036 404.314C740.314 404.185 740.6 404.07 740.892 403.961V398.575C740.937 397.424 741.425 396.335 742.255 395.537C743.086 394.739 744.192 394.293 745.344 394.293C746.496 394.293 747.602 394.739 748.432 395.537C749.263 396.335 749.751 397.424 749.796 398.575V403.961C750.208 404.112 750.611 404.284 751.005 404.477C751.13 404.323 751.266 404.177 751.413 404.042L755.889 400.178C756.79 399.46 757.934 399.119 759.08 399.226C760.227 399.333 761.288 399.881 762.04 400.753C762.793 401.626 763.178 402.755 763.115 403.906C763.052 405.056 762.546 406.137 761.703 406.922L757.206 410.801C757.171 410.832 757.132 410.859 757.091 410.882C757.172 411.072 757.24 411.269 757.315 411.466H762.898C764.072 411.472 765.197 411.941 766.026 412.772C766.856 413.602 767.323 414.727 767.327 415.902C767.327 417.082 766.858 418.214 766.024 419.05C765.19 419.885 764.058 420.355 762.878 420.357H757.349L757.213 420.724H757.254L761.703 424.657C762.543 425.451 763.042 426.541 763.093 427.696C763.145 428.851 762.745 429.981 761.979 430.847C761.212 431.713 760.139 432.247 758.987 432.337C757.834 432.426 756.691 432.064 755.8 431.326L751.358 427.394L751.263 427.292C750.778 427.554 750.274 427.781 749.755 427.971V433.31C749.71 434.46 749.222 435.549 748.392 436.347C747.562 437.146 746.455 437.591 745.303 437.591C744.152 437.591 743.045 437.146 742.215 436.347C741.385 435.549 740.896 434.46 740.851 433.31V428.025C740.545 427.91 740.24 427.788 739.941 427.645L735.58 431.401C734.682 432.169 733.516 432.55 732.338 432.458C731.159 432.366 730.066 431.81 729.298 430.912C728.529 430.014 728.149 428.848 728.241 427.669C728.333 426.491 728.889 425.398 729.787 424.629L733.658 421.288C733.522 420.982 733.4 420.67 733.285 420.357H727.572C726.391 420.357 725.257 419.888 724.422 419.052C723.586 418.217 723.117 417.083 723.117 415.902C723.119 414.721 723.589 413.589 724.424 412.755C725.26 411.921 726.392 411.453 727.572 411.453Z" fill="#C7B8F8"/>
<path d="M727.572 411.453H733.366C733.475 411.154 733.597 410.862 733.726 410.576L729.508 406.841C729.062 406.456 728.696 405.987 728.432 405.46C728.168 404.933 728.012 404.359 727.972 403.771C727.932 403.183 728.01 402.593 728.2 402.035C728.39 401.477 728.688 400.963 729.079 400.521C729.469 400.08 729.944 399.721 730.474 399.464C731.005 399.208 731.581 399.059 732.169 399.027C732.758 398.995 733.347 399.08 733.902 399.278C734.457 399.475 734.968 399.781 735.404 400.178L739.846 404.11C739.914 404.171 739.968 404.246 740.036 404.314C740.314 404.185 740.6 404.07 740.892 403.961V398.575C740.937 397.424 741.425 396.335 742.255 395.537C743.086 394.739 744.192 394.293 745.344 394.293C746.496 394.293 747.602 394.739 748.432 395.537C749.263 396.335 749.751 397.424 749.796 398.575V403.961C750.208 404.112 750.611 404.284 751.005 404.477C751.13 404.323 751.266 404.177 751.413 404.042L755.889 400.178C756.79 399.46 757.934 399.119 759.08 399.226C760.227 399.333 761.288 399.881 762.04 400.753C762.793 401.626 763.178 402.755 763.115 403.906C763.052 405.056 762.546 406.137 761.703 406.922L757.206 410.801C757.171 410.832 757.132 410.859 757.091 410.882C757.172 411.072 757.24 411.269 757.315 411.466H762.898C764.072 411.472 765.197 411.941 766.026 412.772C766.856 413.602 767.323 414.727 767.327 415.902C767.327 417.082 766.858 418.214 766.024 419.05C765.19 419.885 764.058 420.355 762.878 420.357H757.349L757.213 420.724H757.254L761.703 424.657C762.543 425.451 763.042 426.541 763.093 427.696C763.145 428.851 762.745 429.981 761.979 430.847C761.212 431.713 760.139 432.247 758.987 432.337C757.834 432.426 756.691 432.064 755.8 431.326L751.358 427.394L751.263 427.292C750.778 427.554 750.274 427.781 749.755 427.971V433.31C749.71 434.46 749.222 435.549 748.392 436.347C747.562 437.146 746.455 437.591 745.303 437.591C744.152 437.591 743.045 437.146 742.215 436.347C741.385 435.549 740.896 434.46 740.851 433.31V428.025C740.545 427.91 740.24 427.788 739.941 427.645L735.58 431.401C734.682 432.169 733.516 432.55 732.338 432.458C731.159 432.366 730.066 431.81 729.298 430.912C728.529 430.014 728.149 428.848 728.241 427.669C728.333 426.491 728.889 425.398 729.787 424.629L733.658 421.288C733.522 420.982 733.4 420.67 733.285 420.357H727.572C726.391 420.357 725.257 419.888 724.422 419.052C723.586 418.217 723.117 417.083 723.117 415.902C723.119 414.721 723.589 413.589 724.424 412.755C725.26 411.921 726.392 411.453 727.572 411.453Z" fill="#C7B8F8"/>
<path d="M727.572 411.453H733.366C733.475 411.154 733.597 410.862 733.726 410.576L729.508 406.841C729.062 406.456 728.696 405.987 728.432 405.46C728.168 404.933 728.012 404.359 727.972 403.771C727.932 403.183 728.01 402.593 728.2 402.035C728.39 401.477 728.688 400.963 729.079 400.521C729.469 400.08 729.944 399.721 730.474 399.464C731.005 399.208 731.581 399.059 732.169 399.027C732.758 398.995 733.347 399.08 733.902 399.278C734.457 399.475 734.968 399.781 735.404 400.178L739.846 404.11C739.914 404.171 739.968 404.246 740.036 404.314C740.314 404.185 740.6 404.07 740.892 403.961V398.575C740.937 397.424 741.425 396.335 742.255 395.537C743.086 394.739 744.192 394.293 745.344 394.293C746.496 394.293 747.602 394.739 748.432 395.537C749.263 396.335 749.751 397.424 749.796 398.575V403.961C750.208 404.112 750.611 404.284 751.005 404.477C751.13 404.323 751.266 404.177 751.413 404.042L755.889 400.178C756.79 399.46 757.934 399.119 759.08 399.226C760.227 399.333 761.288 399.881 762.04 400.753C762.793 401.626 763.178 402.755 763.115 403.906C763.052 405.056 762.546 406.137 761.703 406.922L757.206 410.801C757.171 410.832 757.132 410.859 757.091 410.882C757.172 411.072 757.24 411.269 757.315 411.466H762.898C764.072 411.472 765.197 411.941 766.026 412.772C766.856 413.602 767.323 414.727 767.327 415.902C767.327 417.082 766.858 418.214 766.024 419.05C765.19 419.885 764.058 420.355 762.878 420.357H757.349L757.213 420.724H757.254L761.703 424.657C762.543 425.451 763.042 426.541 763.093 427.696C763.145 428.851 762.745 429.981 761.979 430.847C761.212 431.713 760.139 432.247 758.987 432.337C757.834 432.426 756.691 432.064 755.8 431.326L751.358 427.394L751.263 427.292C750.778 427.554 750.274 427.781 749.755 427.971V433.31C749.71 434.46 749.222 435.549 748.392 436.347C747.562 437.146 746.455 437.591 745.303 437.591C744.152 437.591 743.045 437.146 742.215 436.347C741.385 435.549 740.896 434.46 740.851 433.31V428.025C740.545 427.91 740.24 427.788 739.941 427.645L735.58 431.401C734.682 432.169 733.516 432.55 732.338 432.458C731.159 432.366 730.066 431.81 729.298 430.912C728.529 430.014 728.149 428.848 728.241 427.669C728.333 426.491 728.889 425.398 729.787 424.629L733.658 421.288C733.522 420.982 733.4 420.67 733.285 420.357H727.572C726.391 420.357 725.257 419.888 724.422 419.052C723.586 418.217 723.117 417.083 723.117 415.902C723.119 414.721 723.589 413.589 724.424 412.755C725.26 411.921 726.392 411.453 727.572 411.453Z" fill="#C7B8F8"/>
<path d="M727.572 411.453H733.366C733.475 411.154 733.597 410.862 733.726 410.576L729.508 406.841C729.062 406.456 728.696 405.987 728.432 405.46C728.168 404.933 728.012 404.359 727.972 403.771C727.932 403.183 728.01 402.593 728.2 402.035C728.39 401.477 728.688 400.963 729.079 400.521C729.469 400.08 729.944 399.721 730.474 399.464C731.005 399.208 731.581 399.059 732.169 399.027C732.758 398.995 733.347 399.08 733.902 399.278C734.457 399.475 734.968 399.781 735.404 400.178L739.846 404.11C739.914 404.171 739.968 404.246 740.036 404.314C740.314 404.185 740.6 404.07 740.892 403.961V398.575C740.937 397.424 741.425 396.335 742.255 395.537C743.086 394.739 744.192 394.293 745.344 394.293C746.496 394.293 747.602 394.739 748.432 395.537C749.263 396.335 749.751 397.424 749.796 398.575V403.961C750.208 404.112 750.611 404.284 751.005 404.477C751.13 404.323 751.266 404.177 751.413 404.042L755.889 400.178C756.79 399.46 757.934 399.119 759.08 399.226C760.227 399.333 761.288 399.881 762.04 400.753C762.793 401.626 763.178 402.755 763.115 403.906C763.052 405.056 762.546 406.137 761.703 406.922L757.206 410.801C757.171 410.832 757.132 410.859 757.091 410.882C757.172 411.072 757.24 411.269 757.315 411.466H762.898C764.072 411.472 765.197 411.941 766.026 412.772C766.856 413.602 767.323 414.727 767.327 415.902C767.327 417.082 766.858 418.214 766.024 419.05C765.19 419.885 764.058 420.355 762.878 420.357H757.349L757.213 420.724H757.254L761.703 424.657C762.543 425.451 763.042 426.541 763.093 427.696C763.145 428.851 762.745 429.981 761.979 430.847C761.212 431.713 760.139 432.247 758.987 432.337C757.834 432.426 756.691 432.064 755.8 431.326L751.358 427.394L751.263 427.292C750.778 427.554 750.274 427.781 749.755 427.971V433.31C749.71 434.46 749.222 435.549 748.392 436.347C747.562 437.146 746.455 437.591 745.303 437.591C744.152 437.591 743.045 437.146 742.215 436.347C741.385 435.549 740.896 434.46 740.851 433.31V428.025C740.545 427.91 740.24 427.788 739.941 427.645L735.58 431.401C734.682 432.169 733.516 432.55 732.338 432.458C731.159 432.366 730.066 431.81 729.298 430.912C728.529 430.014 728.149 428.848 728.241 427.669C728.333 426.491 728.889 425.398 729.787 424.629L733.658 421.288C733.522 420.982 733.4 420.67 733.285 420.357H727.572C726.391 420.357 725.257 419.888 724.422 419.052C723.586 418.217 723.117 417.083 723.117 415.902C723.119 414.721 723.589 413.589 724.424 412.755C725.26 411.921 726.392 411.453 727.572 411.453Z" fill="#C7B8F8"/>
<path d="M727.572 411.453H733.366C733.475 411.154 733.597 410.862 733.726 410.576L729.508 406.841C729.062 406.456 728.696 405.987 728.432 405.46C728.168 404.933 728.012 404.359 727.972 403.771C727.932 403.183 728.01 402.593 728.2 402.035C728.39 401.477 728.688 400.963 729.079 400.521C729.469 400.08 729.944 399.721 730.474 399.464C731.005 399.208 731.581 399.059 732.169 399.027C732.758 398.995 733.347 399.08 733.902 399.278C734.457 399.475 734.968 399.781 735.404 400.178L739.846 404.11C739.914 404.171 739.968 404.246 740.036 404.314C740.314 404.185 740.6 404.07 740.892 403.961V398.575C740.937 397.424 741.425 396.335 742.255 395.537C743.086 394.739 744.192 394.293 745.344 394.293C746.496 394.293 747.602 394.739 748.432 395.537C749.263 396.335 749.751 397.424 749.796 398.575V403.961C750.208 404.112 750.611 404.284 751.005 404.477C751.13 404.323 751.266 404.177 751.413 404.042L755.889 400.178C756.79 399.46 757.934 399.119 759.08 399.226C760.227 399.333 761.288 399.881 762.04 400.753C762.793 401.626 763.178 402.755 763.115 403.906C763.052 405.056 762.546 406.137 761.703 406.922L757.206 410.801C757.171 410.832 757.132 410.859 757.091 410.882C757.172 411.072 757.24 411.269 757.315 411.466H762.898C764.072 411.472 765.197 411.941 766.026 412.772C766.856 413.602 767.323 414.727 767.327 415.902C767.327 417.082 766.858 418.214 766.024 419.05C765.19 419.885 764.058 420.355 762.878 420.357H757.349L757.213 420.724H757.254L761.703 424.657C762.543 425.451 763.042 426.541 763.093 427.696C763.145 428.851 762.745 429.981 761.979 430.847C761.212 431.713 760.139 432.247 758.987 432.337C757.834 432.426 756.691 432.064 755.8 431.326L751.358 427.394L751.263 427.292C750.778 427.554 750.274 427.781 749.755 427.971V433.31C749.71 434.46 749.222 435.549 748.392 436.347C747.562 437.146 746.455 437.591 745.303 437.591C744.152 437.591 743.045 437.146 742.215 436.347C741.385 435.549 740.896 434.46 740.851 433.31V428.025C740.545 427.91 740.24 427.788 739.941 427.645L735.58 431.401C734.682 432.169 733.516 432.55 732.338 432.458C731.159 432.366 730.066 431.81 729.298 430.912C728.529 430.014 728.149 428.848 728.241 427.669C728.333 426.491 728.889 425.398 729.787 424.629L733.658 421.288C733.522 420.982 733.4 420.67 733.285 420.357H727.572C726.391 420.357 725.257 419.888 724.422 419.052C723.586 418.217 723.117 417.083 723.117 415.902C723.119 414.721 723.589 413.589 724.424 412.755C725.26 411.921 726.392 411.453 727.572 411.453Z" fill="#C7B8F8"/>
<path d="M727.572 411.453H733.366C733.475 411.154 733.597 410.862 733.726 410.576L729.508 406.841C729.062 406.456 728.696 405.987 728.432 405.46C728.168 404.933 728.012 404.359 727.972 403.771C727.932 403.183 728.01 402.593 728.2 402.035C728.39 401.477 728.688 400.963 729.079 400.521C729.469 400.08 729.944 399.721 730.474 399.464C731.005 399.208 731.581 399.059 732.169 399.027C732.758 398.995 733.347 399.08 733.902 399.278C734.457 399.475 734.968 399.781 735.404 400.178L739.846 404.11C739.914 404.171 739.968 404.246 740.036 404.314C740.314 404.185 740.6 404.07 740.892 403.961V398.575C740.937 397.424 741.425 396.335 742.255 395.537C743.086 394.739 744.192 394.293 745.344 394.293C746.496 394.293 747.602 394.739 748.432 395.537C749.263 396.335 749.751 397.424 749.796 398.575V403.961C750.208 404.112 750.611 404.284 751.005 404.477C751.13 404.323 751.266 404.177 751.413 404.042L755.889 400.178C756.79 399.46 757.934 399.119 759.08 399.226C760.227 399.333 761.288 399.881 762.04 400.753C762.793 401.626 763.178 402.755 763.115 403.906C763.052 405.056 762.546 406.137 761.703 406.922L757.206 410.801C757.171 410.832 757.132 410.859 757.091 410.882C757.172 411.072 757.24 411.269 757.315 411.466H762.898C764.072 411.472 765.197 411.941 766.026 412.772C766.856 413.602 767.323 414.727 767.327 415.902C767.327 417.082 766.858 418.214 766.024 419.05C765.19 419.885 764.058 420.355 762.878 420.357H757.349L757.213 420.724H757.254L761.703 424.657C762.543 425.451 763.042 426.541 763.093 427.696C763.145 428.851 762.745 429.981 761.979 430.847C761.212 431.713 760.139 432.247 758.987 432.337C757.834 432.426 756.691 432.064 755.8 431.326L751.358 427.394L751.263 427.292C750.778 427.554 750.274 427.781 749.755 427.971V433.31C749.71 434.46 749.222 435.549 748.392 436.347C747.562 437.146 746.455 437.591 745.303 437.591C744.152 437.591 743.045 437.146 742.215 436.347C741.385 435.549 740.896 434.46 740.851 433.31V428.025C740.545 427.91 740.24 427.788 739.941 427.645L735.58 431.401C734.682 432.169 733.516 432.55 732.338 432.458C731.159 432.366 730.066 431.81 729.298 430.912C728.529 430.014 728.149 428.848 728.241 427.669C728.333 426.491 728.889 425.398 729.787 424.629L733.658 421.288C733.522 420.982 733.4 420.67 733.285 420.357H727.572C726.391 420.357 725.257 419.888 724.422 419.052C723.586 418.217 723.117 417.083 723.117 415.902C723.119 414.721 723.589 413.589 724.424 412.755C725.26 411.921 726.392 411.453 727.572 411.453Z" fill="#C7B8F8"/>
<path d="M680.163 427.856H685.93C686.039 427.557 686.161 427.271 686.297 426.986L682.072 423.25C681.232 422.456 680.733 421.366 680.682 420.211C680.63 419.056 681.03 417.926 681.796 417.06C682.562 416.194 683.635 415.66 684.788 415.57C685.941 415.481 687.084 415.843 687.974 416.581L692.416 420.513C692.483 420.578 692.547 420.646 692.607 420.717C692.885 420.588 693.177 420.473 693.469 420.364V414.978C693.514 413.827 694.003 412.738 694.833 411.94C695.663 411.142 696.77 410.696 697.921 410.696C699.073 410.696 700.18 411.142 701.01 411.94C701.84 412.738 702.329 413.827 702.374 414.978V420.364C702.781 420.513 703.182 420.69 703.576 420.88C703.703 420.727 703.839 420.582 703.983 420.445L708.48 416.567C708.918 416.158 709.435 415.842 709.999 415.638C710.562 415.434 711.162 415.345 711.76 415.378C712.359 415.411 712.945 415.564 713.483 415.829C714.021 416.093 714.5 416.464 714.892 416.918C715.283 417.372 715.579 417.901 715.761 418.472C715.944 419.043 716.009 419.645 715.953 420.242C715.897 420.839 715.722 421.419 715.436 421.946C715.151 422.473 714.763 422.938 714.294 423.312L709.804 427.19C709.765 427.219 709.724 427.247 709.682 427.271C709.763 427.462 709.838 427.659 709.906 427.856H715.489C716.669 427.856 717.801 428.324 718.635 429.159C719.469 429.993 719.938 431.124 719.938 432.304C719.938 433.485 719.469 434.617 718.635 435.453C717.801 436.288 716.67 436.758 715.489 436.76H709.96C709.92 436.882 709.872 437.011 709.825 437.134C709.825 437.134 709.825 437.134 709.865 437.134L714.314 441.066C714.774 441.447 715.153 441.917 715.428 442.447C715.703 442.978 715.869 443.558 715.915 444.154C715.961 444.749 715.887 445.348 715.697 445.915C715.507 446.481 715.205 447.004 714.809 447.451C714.413 447.898 713.932 448.262 713.392 448.519C712.853 448.776 712.268 448.923 711.671 448.949C711.074 448.976 710.478 448.882 709.918 448.674C709.358 448.465 708.846 448.147 708.412 447.736L703.97 443.803L703.875 443.708C703.389 443.967 702.888 444.193 702.374 444.388V449.76C702.329 450.911 701.84 451.999 701.01 452.798C700.18 453.596 699.073 454.042 697.921 454.042C696.77 454.042 695.663 453.596 694.833 452.798C694.003 451.999 693.514 450.911 693.469 449.76V444.394C693.157 444.279 692.851 444.157 692.552 444.014L688.198 447.77C687.756 448.152 687.243 448.444 686.688 448.627C686.133 448.811 685.547 448.884 684.964 448.841C684.381 448.799 683.812 448.642 683.289 448.379C682.767 448.117 682.301 447.754 681.919 447.312C681.537 446.869 681.246 446.356 681.062 445.801C680.878 445.246 680.805 444.66 680.848 444.077C680.89 443.494 681.047 442.925 681.31 442.402C681.572 441.88 681.935 441.414 682.378 441.032L686.256 437.691C686.113 437.385 685.991 437.072 685.876 436.76H680.163C678.983 436.758 677.851 436.288 677.017 435.453C676.183 434.617 675.714 433.485 675.714 432.304C675.714 431.72 675.83 431.142 676.053 430.602C676.277 430.062 676.604 429.572 677.018 429.159C677.431 428.745 677.921 428.418 678.461 428.194C679.001 427.971 679.579 427.856 680.163 427.856Z" fill="#C7B8F8"/>
<path d="M680.163 427.856H685.93C686.039 427.557 686.161 427.271 686.297 426.986L682.072 423.25C681.232 422.456 680.733 421.366 680.682 420.211C680.63 419.056 681.03 417.926 681.796 417.06C682.562 416.194 683.635 415.66 684.788 415.57C685.941 415.481 687.084 415.843 687.974 416.581L692.416 420.513C692.483 420.578 692.547 420.646 692.607 420.717C692.885 420.588 693.177 420.473 693.469 420.364V414.978C693.514 413.827 694.003 412.738 694.833 411.94C695.663 411.142 696.77 410.696 697.921 410.696C699.073 410.696 700.18 411.142 701.01 411.94C701.84 412.738 702.329 413.827 702.374 414.978V420.364C702.781 420.513 703.182 420.69 703.576 420.88C703.703 420.727 703.839 420.582 703.983 420.445L708.48 416.567C708.918 416.158 709.435 415.842 709.999 415.638C710.562 415.434 711.162 415.345 711.76 415.378C712.359 415.411 712.945 415.564 713.483 415.829C714.021 416.093 714.5 416.464 714.892 416.918C715.283 417.372 715.579 417.901 715.761 418.472C715.944 419.043 716.009 419.645 715.953 420.242C715.897 420.839 715.722 421.419 715.436 421.946C715.151 422.473 714.763 422.938 714.294 423.312L709.804 427.19C709.765 427.219 709.724 427.247 709.682 427.271C709.763 427.462 709.838 427.659 709.906 427.856H715.489C716.669 427.856 717.801 428.324 718.635 429.159C719.469 429.993 719.938 431.124 719.938 432.304C719.938 433.485 719.469 434.617 718.635 435.453C717.801 436.288 716.67 436.758 715.489 436.76H709.96C709.92 436.882 709.872 437.011 709.825 437.134C709.825 437.134 709.825 437.134 709.865 437.134L714.314 441.066C714.774 441.447 715.153 441.917 715.428 442.447C715.703 442.978 715.869 443.558 715.915 444.154C715.961 444.749 715.887 445.348 715.697 445.915C715.507 446.481 715.205 447.004 714.809 447.451C714.413 447.898 713.932 448.262 713.392 448.519C712.853 448.776 712.268 448.923 711.671 448.949C711.074 448.976 710.478 448.882 709.918 448.674C709.358 448.465 708.846 448.147 708.412 447.736L703.97 443.803L703.875 443.708C703.389 443.967 702.888 444.193 702.374 444.388V449.76C702.329 450.911 701.84 451.999 701.01 452.798C700.18 453.596 699.073 454.042 697.921 454.042C696.77 454.042 695.663 453.596 694.833 452.798C694.003 451.999 693.514 450.911 693.469 449.76V444.394C693.157 444.279 692.851 444.157 692.552 444.014L688.198 447.77C687.756 448.152 687.243 448.444 686.688 448.627C686.133 448.811 685.547 448.884 684.964 448.841C684.381 448.799 683.812 448.642 683.289 448.379C682.767 448.117 682.301 447.754 681.919 447.312C681.537 446.869 681.246 446.356 681.062 445.801C680.878 445.246 680.805 444.66 680.848 444.077C680.89 443.494 681.047 442.925 681.31 442.402C681.572 441.88 681.935 441.414 682.378 441.032L686.256 437.691C686.113 437.385 685.991 437.072 685.876 436.76H680.163C678.983 436.758 677.851 436.288 677.017 435.453C676.183 434.617 675.714 433.485 675.714 432.304C675.714 431.72 675.83 431.142 676.053 430.602C676.277 430.062 676.604 429.572 677.018 429.159C677.431 428.745 677.921 428.418 678.461 428.194C679.001 427.971 679.579 427.856 680.163 427.856Z" fill="#C7B8F8"/>
<path d="M680.163 427.856H685.93C686.039 427.557 686.161 427.271 686.297 426.986L682.072 423.25C681.232 422.456 680.733 421.366 680.682 420.211C680.63 419.056 681.03 417.926 681.796 417.06C682.562 416.194 683.635 415.66 684.788 415.57C685.941 415.481 687.084 415.843 687.974 416.581L692.416 420.513C692.483 420.578 692.547 420.646 692.607 420.717C692.885 420.588 693.177 420.473 693.469 420.364V414.978C693.514 413.827 694.003 412.738 694.833 411.94C695.663 411.142 696.77 410.696 697.921 410.696C699.073 410.696 700.18 411.142 701.01 411.94C701.84 412.738 702.329 413.827 702.374 414.978V420.364C702.781 420.513 703.182 420.69 703.576 420.88C703.703 420.727 703.839 420.582 703.983 420.445L708.48 416.567C708.918 416.158 709.435 415.842 709.999 415.638C710.562 415.434 711.162 415.345 711.76 415.378C712.359 415.411 712.945 415.564 713.483 415.829C714.021 416.093 714.5 416.464 714.892 416.918C715.283 417.372 715.579 417.901 715.761 418.472C715.944 419.043 716.009 419.645 715.953 420.242C715.897 420.839 715.722 421.419 715.436 421.946C715.151 422.473 714.763 422.938 714.294 423.312L709.804 427.19C709.765 427.219 709.724 427.247 709.682 427.271C709.763 427.462 709.838 427.659 709.906 427.856H715.489C716.669 427.856 717.801 428.324 718.635 429.159C719.469 429.993 719.938 431.124 719.938 432.304C719.938 433.485 719.469 434.617 718.635 435.453C717.801 436.288 716.67 436.758 715.489 436.76H709.96C709.92 436.882 709.872 437.011 709.825 437.134C709.825 437.134 709.825 437.134 709.865 437.134L714.314 441.066C714.774 441.447 715.153 441.917 715.428 442.447C715.703 442.978 715.869 443.558 715.915 444.154C715.961 444.749 715.887 445.348 715.697 445.915C715.507 446.481 715.205 447.004 714.809 447.451C714.413 447.898 713.932 448.262 713.392 448.519C712.853 448.776 712.268 448.923 711.671 448.949C711.074 448.976 710.478 448.882 709.918 448.674C709.358 448.465 708.846 448.147 708.412 447.736L703.97 443.803L703.875 443.708C703.389 443.967 702.888 444.193 702.374 444.388V449.76C702.329 450.911 701.84 451.999 701.01 452.798C700.18 453.596 699.073 454.042 697.921 454.042C696.77 454.042 695.663 453.596 694.833 452.798C694.003 451.999 693.514 450.911 693.469 449.76V444.394C693.157 444.279 692.851 444.157 692.552 444.014L688.198 447.77C687.756 448.152 687.243 448.444 686.688 448.627C686.133 448.811 685.547 448.884 684.964 448.841C684.381 448.799 683.812 448.642 683.289 448.379C682.767 448.117 682.301 447.754 681.919 447.312C681.537 446.869 681.246 446.356 681.062 445.801C680.878 445.246 680.805 444.66 680.848 444.077C680.89 443.494 681.047 442.925 681.31 442.402C681.572 441.88 681.935 441.414 682.378 441.032L686.256 437.691C686.113 437.385 685.991 437.072 685.876 436.76H680.163C678.983 436.758 677.851 436.288 677.017 435.453C676.183 434.617 675.714 433.485 675.714 432.304C675.714 431.72 675.83 431.142 676.053 430.602C676.277 430.062 676.604 429.572 677.018 429.159C677.431 428.745 677.921 428.418 678.461 428.194C679.001 427.971 679.579 427.856 680.163 427.856Z" fill="#C7B8F8"/>
<path d="M680.163 427.856H685.93C686.039 427.557 686.161 427.271 686.297 426.986L682.072 423.25C681.232 422.456 680.733 421.366 680.682 420.211C680.63 419.056 681.03 417.926 681.796 417.06C682.562 416.194 683.635 415.66 684.788 415.57C685.941 415.481 687.084 415.843 687.974 416.581L692.416 420.513C692.483 420.578 692.547 420.646 692.607 420.717C692.885 420.588 693.177 420.473 693.469 420.364V414.978C693.514 413.827 694.003 412.738 694.833 411.94C695.663 411.142 696.77 410.696 697.921 410.696C699.073 410.696 700.18 411.142 701.01 411.94C701.84 412.738 702.329 413.827 702.374 414.978V420.364C702.781 420.513 703.182 420.69 703.576 420.88C703.703 420.727 703.839 420.582 703.983 420.445L708.48 416.567C708.918 416.158 709.435 415.842 709.999 415.638C710.562 415.434 711.162 415.345 711.76 415.378C712.359 415.411 712.945 415.564 713.483 415.829C714.021 416.093 714.5 416.464 714.892 416.918C715.283 417.372 715.579 417.901 715.761 418.472C715.944 419.043 716.009 419.645 715.953 420.242C715.897 420.839 715.722 421.419 715.436 421.946C715.151 422.473 714.763 422.938 714.294 423.312L709.804 427.19C709.765 427.219 709.724 427.247 709.682 427.271C709.763 427.462 709.838 427.659 709.906 427.856H715.489C716.669 427.856 717.801 428.324 718.635 429.159C719.469 429.993 719.938 431.124 719.938 432.304C719.938 433.485 719.469 434.617 718.635 435.453C717.801 436.288 716.67 436.758 715.489 436.76H709.96C709.92 436.882 709.872 437.011 709.825 437.134C709.825 437.134 709.825 437.134 709.865 437.134L714.314 441.066C714.774 441.447 715.153 441.917 715.428 442.447C715.703 442.978 715.869 443.558 715.915 444.154C715.961 444.749 715.887 445.348 715.697 445.915C715.507 446.481 715.205 447.004 714.809 447.451C714.413 447.898 713.932 448.262 713.392 448.519C712.853 448.776 712.268 448.923 711.671 448.949C711.074 448.976 710.478 448.882 709.918 448.674C709.358 448.465 708.846 448.147 708.412 447.736L703.97 443.803L703.875 443.708C703.389 443.967 702.888 444.193 702.374 444.388V449.76C702.329 450.911 701.84 451.999 701.01 452.798C700.18 453.596 699.073 454.042 697.921 454.042C696.77 454.042 695.663 453.596 694.833 452.798C694.003 451.999 693.514 450.911 693.469 449.76V444.394C693.157 444.279 692.851 444.157 692.552 444.014L688.198 447.77C687.756 448.152 687.243 448.444 686.688 448.627C686.133 448.811 685.547 448.884 684.964 448.841C684.381 448.799 683.812 448.642 683.289 448.379C682.767 448.117 682.301 447.754 681.919 447.312C681.537 446.869 681.246 446.356 681.062 445.801C680.878 445.246 680.805 444.66 680.848 444.077C680.89 443.494 681.047 442.925 681.31 442.402C681.572 441.88 681.935 441.414 682.378 441.032L686.256 437.691C686.113 437.385 685.991 437.072 685.876 436.76H680.163C678.983 436.758 677.851 436.288 677.017 435.453C676.183 434.617 675.714 433.485 675.714 432.304C675.714 431.72 675.83 431.142 676.053 430.602C676.277 430.062 676.604 429.572 677.018 429.159C677.431 428.745 677.921 428.418 678.461 428.194C679.001 427.971 679.579 427.856 680.163 427.856Z" fill="#C7B8F8"/>
<path d="M680.163 427.856H685.93C686.039 427.557 686.161 427.271 686.297 426.986L682.072 423.25C681.232 422.456 680.733 421.366 680.682 420.211C680.63 419.056 681.03 417.926 681.796 417.06C682.562 416.194 683.635 415.66 684.788 415.57C685.941 415.481 687.084 415.843 687.974 416.581L692.416 420.513C692.483 420.578 692.547 420.646 692.607 420.717C692.885 420.588 693.177 420.473 693.469 420.364V414.978C693.514 413.827 694.003 412.738 694.833 411.94C695.663 411.142 696.77 410.696 697.921 410.696C699.073 410.696 700.18 411.142 701.01 411.94C701.84 412.738 702.329 413.827 702.374 414.978V420.364C702.781 420.513 703.182 420.69 703.576 420.88C703.703 420.727 703.839 420.582 703.983 420.445L708.48 416.567C708.918 416.158 709.435 415.842 709.999 415.638C710.562 415.434 711.162 415.345 711.76 415.378C712.359 415.411 712.945 415.564 713.483 415.829C714.021 416.093 714.5 416.464 714.892 416.918C715.283 417.372 715.579 417.901 715.761 418.472C715.944 419.043 716.009 419.645 715.953 420.242C715.897 420.839 715.722 421.419 715.436 421.946C715.151 422.473 714.763 422.938 714.294 423.312L709.804 427.19C709.765 427.219 709.724 427.247 709.682 427.271C709.763 427.462 709.838 427.659 709.906 427.856H715.489C716.669 427.856 717.801 428.324 718.635 429.159C719.469 429.993 719.938 431.124 719.938 432.304C719.938 433.485 719.469 434.617 718.635 435.453C717.801 436.288 716.67 436.758 715.489 436.76H709.96C709.92 436.882 709.872 437.011 709.825 437.134C709.825 437.134 709.825 437.134 709.865 437.134L714.314 441.066C714.774 441.447 715.153 441.917 715.428 442.447C715.703 442.978 715.869 443.558 715.915 444.154C715.961 444.749 715.887 445.348 715.697 445.915C715.507 446.481 715.205 447.004 714.809 447.451C714.413 447.898 713.932 448.262 713.392 448.519C712.853 448.776 712.268 448.923 711.671 448.949C711.074 448.976 710.478 448.882 709.918 448.674C709.358 448.465 708.846 448.147 708.412 447.736L703.97 443.803L703.875 443.708C703.389 443.967 702.888 444.193 702.374 444.388V449.76C702.329 450.911 701.84 451.999 701.01 452.798C700.18 453.596 699.073 454.042 697.921 454.042C696.77 454.042 695.663 453.596 694.833 452.798C694.003 451.999 693.514 450.911 693.469 449.76V444.394C693.157 444.279 692.851 444.157 692.552 444.014L688.198 447.77C687.756 448.152 687.243 448.444 686.688 448.627C686.133 448.811 685.547 448.884 684.964 448.841C684.381 448.799 683.812 448.642 683.289 448.379C682.767 448.117 682.301 447.754 681.919 447.312C681.537 446.869 681.246 446.356 681.062 445.801C680.878 445.246 680.805 444.66 680.848 444.077C680.89 443.494 681.047 442.925 681.31 442.402C681.572 441.88 681.935 441.414 682.378 441.032L686.256 437.691C686.113 437.385 685.991 437.072 685.876 436.76H680.163C678.983 436.758 677.851 436.288 677.017 435.453C676.183 434.617 675.714 433.485 675.714 432.304C675.714 431.72 675.83 431.142 676.053 430.602C676.277 430.062 676.604 429.572 677.018 429.159C677.431 428.745 677.921 428.418 678.461 428.194C679.001 427.971 679.579 427.856 680.163 427.856Z" fill="#C7B8F8"/>
<path d="M680.163 427.856H685.93C686.039 427.557 686.161 427.271 686.297 426.986L682.072 423.25C681.232 422.456 680.733 421.366 680.682 420.211C680.63 419.056 681.03 417.926 681.796 417.06C682.562 416.194 683.635 415.66 684.788 415.57C685.941 415.481 687.084 415.843 687.974 416.581L692.416 420.513C692.483 420.578 692.547 420.646 692.607 420.717C692.885 420.588 693.177 420.473 693.469 420.364V414.978C693.514 413.827 694.003 412.738 694.833 411.94C695.663 411.142 696.77 410.696 697.921 410.696C699.073 410.696 700.18 411.142 701.01 411.94C701.84 412.738 702.329 413.827 702.374 414.978V420.364C702.781 420.513 703.182 420.69 703.576 420.88C703.703 420.727 703.839 420.582 703.983 420.445L708.48 416.567C708.918 416.158 709.435 415.842 709.999 415.638C710.562 415.434 711.162 415.345 711.76 415.378C712.359 415.411 712.945 415.564 713.483 415.829C714.021 416.093 714.5 416.464 714.892 416.918C715.283 417.372 715.579 417.901 715.761 418.472C715.944 419.043 716.009 419.645 715.953 420.242C715.897 420.839 715.722 421.419 715.436 421.946C715.151 422.473 714.763 422.938 714.294 423.312L709.804 427.19C709.765 427.219 709.724 427.247 709.682 427.271C709.763 427.462 709.838 427.659 709.906 427.856H715.489C716.669 427.856 717.801 428.324 718.635 429.159C719.469 429.993 719.938 431.124 719.938 432.304C719.938 433.485 719.469 434.617 718.635 435.453C717.801 436.288 716.67 436.758 715.489 436.76H709.96C709.92 436.882 709.872 437.011 709.825 437.134C709.825 437.134 709.825 437.134 709.865 437.134L714.314 441.066C714.774 441.447 715.153 441.917 715.428 442.447C715.703 442.978 715.869 443.558 715.915 444.154C715.961 444.749 715.887 445.348 715.697 445.915C715.507 446.481 715.205 447.004 714.809 447.451C714.413 447.898 713.932 448.262 713.392 448.519C712.853 448.776 712.268 448.923 711.671 448.949C711.074 448.976 710.478 448.882 709.918 448.674C709.358 448.465 708.846 448.147 708.412 447.736L703.97 443.803L703.875 443.708C703.389 443.967 702.888 444.193 702.374 444.388V449.76C702.329 450.911 701.84 451.999 701.01 452.798C700.18 453.596 699.073 454.042 697.921 454.042C696.77 454.042 695.663 453.596 694.833 452.798C694.003 451.999 693.514 450.911 693.469 449.76V444.394C693.157 444.279 692.851 444.157 692.552 444.014L688.198 447.77C687.756 448.152 687.243 448.444 686.688 448.627C686.133 448.811 685.547 448.884 684.964 448.841C684.381 448.799 683.812 448.642 683.289 448.379C682.767 448.117 682.301 447.754 681.919 447.312C681.537 446.869 681.246 446.356 681.062 445.801C680.878 445.246 680.805 444.66 680.848 444.077C680.89 443.494 681.047 442.925 681.31 442.402C681.572 441.88 681.935 441.414 682.378 441.032L686.256 437.691C686.113 437.385 685.991 437.072 685.876 436.76H680.163C678.983 436.758 677.851 436.288 677.017 435.453C676.183 434.617 675.714 433.485 675.714 432.304C675.714 431.72 675.83 431.142 676.053 430.602C676.277 430.062 676.604 429.572 677.018 429.159C677.431 428.745 677.921 428.418 678.461 428.194C679.001 427.971 679.579 427.856 680.163 427.856Z" fill="#C7B8F8"/>
<path d="M680.163 427.856H685.93C686.039 427.557 686.161 427.271 686.297 426.986L682.072 423.25C681.232 422.456 680.733 421.366 680.682 420.211C680.63 419.056 681.03 417.926 681.796 417.06C682.562 416.194 683.635 415.66 684.788 415.57C685.941 415.481 687.084 415.843 687.974 416.581L692.416 420.513C692.483 420.578 692.547 420.646 692.607 420.717C692.885 420.588 693.177 420.473 693.469 420.364V414.978C693.514 413.827 694.003 412.738 694.833 411.94C695.663 411.142 696.77 410.696 697.921 410.696C699.073 410.696 700.18 411.142 701.01 411.94C701.84 412.738 702.329 413.827 702.374 414.978V420.364C702.781 420.513 703.182 420.69 703.576 420.88C703.703 420.727 703.839 420.582 703.983 420.445L708.48 416.567C708.918 416.158 709.435 415.842 709.999 415.638C710.562 415.434 711.162 415.345 711.76 415.378C712.359 415.411 712.945 415.564 713.483 415.829C714.021 416.093 714.5 416.464 714.892 416.918C715.283 417.372 715.579 417.901 715.761 418.472C715.944 419.043 716.009 419.645 715.953 420.242C715.897 420.839 715.722 421.419 715.436 421.946C715.151 422.473 714.763 422.938 714.294 423.312L709.804 427.19C709.765 427.219 709.724 427.247 709.682 427.271C709.763 427.462 709.838 427.659 709.906 427.856H715.489C716.669 427.856 717.801 428.324 718.635 429.159C719.469 429.993 719.938 431.124 719.938 432.304C719.938 433.485 719.469 434.617 718.635 435.453C717.801 436.288 716.67 436.758 715.489 436.76H709.96C709.92 436.882 709.872 437.011 709.825 437.134C709.825 437.134 709.825 437.134 709.865 437.134L714.314 441.066C714.774 441.447 715.153 441.917 715.428 442.447C715.703 442.978 715.869 443.558 715.915 444.154C715.961 444.749 715.887 445.348 715.697 445.915C715.507 446.481 715.205 447.004 714.809 447.451C714.413 447.898 713.932 448.262 713.392 448.519C712.853 448.776 712.268 448.923 711.671 448.949C711.074 448.976 710.478 448.882 709.918 448.674C709.358 448.465 708.846 448.147 708.412 447.736L703.97 443.803L703.875 443.708C703.389 443.967 702.888 444.193 702.374 444.388V449.76C702.329 450.911 701.84 451.999 701.01 452.798C700.18 453.596 699.073 454.042 697.921 454.042C696.77 454.042 695.663 453.596 694.833 452.798C694.003 451.999 693.514 450.911 693.469 449.76V444.394C693.157 444.279 692.851 444.157 692.552 444.014L688.198 447.77C687.756 448.152 687.243 448.444 686.688 448.627C686.133 448.811 685.547 448.884 684.964 448.841C684.381 448.799 683.812 448.642 683.289 448.379C682.767 448.117 682.301 447.754 681.919 447.312C681.537 446.869 681.246 446.356 681.062 445.801C680.878 445.246 680.805 444.66 680.848 444.077C680.89 443.494 681.047 442.925 681.31 442.402C681.572 441.88 681.935 441.414 682.378 441.032L686.256 437.691C686.113 437.385 685.991 437.072 685.876 436.76H680.163C678.983 436.758 677.851 436.288 677.017 435.453C676.183 434.617 675.714 433.485 675.714 432.304C675.714 431.72 675.83 431.142 676.053 430.602C676.277 430.062 676.604 429.572 677.018 429.159C677.431 428.745 677.921 428.418 678.461 428.194C679.001 427.971 679.579 427.856 680.163 427.856Z" fill="#C7B8F8"/>
<path d="M745.232 421.845C741.976 421.845 739.336 419.205 739.336 415.949C739.336 412.693 741.976 410.054 745.232 410.054C748.488 410.054 751.127 412.693 751.127 415.949C751.127 419.205 748.488 421.845 745.232 421.845Z" fill="white"/>
<path d="M697.823 438.567C694.567 438.567 691.927 435.927 691.927 432.671C691.927 429.415 694.567 426.776 697.823 426.776C701.079 426.776 703.718 429.415 703.718 432.671C703.718 435.927 701.079 438.567 697.823 438.567Z" fill="white"/>
<path d="M690.08 539.247C692.288 539.247 694.447 538.592 696.283 537.365C698.12 536.138 699.551 534.394 700.396 532.353C701.241 530.313 701.462 528.068 701.032 525.902C700.601 523.736 699.537 521.746 697.976 520.185C696.414 518.623 694.424 517.56 692.258 517.129C690.092 516.698 687.847 516.919 685.807 517.764C683.766 518.609 682.022 520.04 680.795 521.877C679.568 523.713 678.914 525.872 678.914 528.08C678.917 531.041 680.095 533.879 682.188 535.972C684.281 538.065 687.119 539.243 690.08 539.247ZM690.08 519.631C691.751 519.631 693.385 520.126 694.774 521.055C696.164 521.983 697.247 523.303 697.886 524.847C698.526 526.391 698.693 528.09 698.367 529.729C698.041 531.368 697.236 532.873 696.054 534.055C694.873 535.237 693.367 536.041 691.728 536.367C690.089 536.693 688.39 536.526 686.846 535.887C685.302 535.247 683.983 534.164 683.054 532.775C682.126 531.385 681.63 529.751 681.63 528.08C681.636 525.841 682.528 523.695 684.111 522.112C685.695 520.528 687.841 519.636 690.08 519.631Z" fill="black"/>
<path d="M707.671 557.823C709.202 557.823 710.697 557.369 711.97 556.519C713.242 555.669 714.233 554.461 714.819 553.047C715.404 551.634 715.558 550.078 715.259 548.577C714.961 547.077 714.224 545.698 713.142 544.616C712.06 543.534 710.681 542.798 709.181 542.499C707.68 542.201 706.125 542.354 704.711 542.939C703.297 543.525 702.089 544.516 701.239 545.789C700.389 547.061 699.935 548.557 699.935 550.087C699.937 552.138 700.753 554.105 702.203 555.555C703.654 557.005 705.62 557.821 707.671 557.823ZM707.671 545.067C708.664 545.067 709.635 545.362 710.46 545.913C711.286 546.465 711.929 547.249 712.309 548.166C712.689 549.083 712.788 550.092 712.594 551.066C712.401 552.039 711.923 552.934 711.221 553.636C710.519 554.338 709.624 554.816 708.651 555.01C707.677 555.203 706.668 555.104 705.751 554.724C704.833 554.344 704.05 553.701 703.498 552.875C702.946 552.05 702.652 551.079 702.652 550.087C702.654 548.756 703.183 547.48 704.124 546.539C705.065 545.598 706.341 545.069 707.671 545.067Z" fill="black"/>
</svg>
